P1 128 64
11111111111111111111111111111111111111111111111111111111111111111111111111111111111111111111111111111111111111111111111111111111
11111111111111111111111111111111111111111111111111111111111111111111111111111111111111111111111111111111111111111111111111111111
11111111111111111111111111111111111111111111111111111111111111111111111111111111111111111111111111111111111111111111111111111111
11111111111111111111111111111111111111111111111111111111111111111111111111111111111111111111111111111111111111111111111111111111
11111111111111111111111111111111111111111111111111111111111111111111111111111111111111111111111111111111111111111111111111111111
11111111111111111111111111111111111111111111111111111111111111111111111111111111111111111111111111111111111111111111111111111111
11111111111111111111111111111111111111111111111111111111111111111111111111111111111111111111111111111111111111111111111111111111
11111111111111111111111111111111111111111111111111111111111111111111111111111111111111111111111111111111111111111111111111111111
11111111111111111111111111111111111111111111111111111111111111111111111111111111111111111111111111111111111111111111111111111111
11111111111111111111111111111111111111111111111111111111111111111111111111111111111111111111111111111111111111111111111111111111
11111111111111111111111111111111111111111111111111111111111111111111111111111111111111111111111111111111111111111111111111111111
11111111111111111111111111111111111111111111000000001111111111111111111111111111111111111111111111111111111111111111111111111111
11111111111111111111111111111111111111110000000000000000111111111111111111111111111111111111111000000000000000111111111111111111
11111111111111111111111111111111111110000000000000000000000111111111111111111111111111111111000000000000000000000111111111111111
11111111111111111111111111111111111000000000000000000000000001111111111111111111111111111100000000000000000000000001111111111111
11111111111111111111111111111111110000000000000000000000000000011111111111111111111111110000000000000000000000000000011111111111
11111111111111111111111111111111000000000000000000000000000000001110000000000000001111100000000000000000000000000000001111111111
11111111111111000000000000000010000000000000000000000000000000010000000000000000000001000000000000000000000000000000000111111111
11111111111000000000000000000001100000000000000000000000000001100000000000000000000000110000000000000000000000000000000011111111
11111111100000000000000000000000011100000000000000000000000010000000000000000000000000001100000000000000000000000000000011111111
11111111000000000000000000000000000010000000000000000000001100000000000000000000000000000010000000000000000000000000000001111111
11111100000000000000000000000000000001000000000000000000010000000000000000000000000000000001000000000000000000000000000001111111
11111000000000000000000000000000000000100000000000000000010000000000000000000000000000000000100000000000000000000000000001111111
11110000000000000000000000000000000000010000000000000000100000000000000000000000000000000000100000000000000000000000000001111111
11100000000000000000000000000000000000001000000000000001000000000000000000000000000000000000010000000000000000000000000001111111
11100000000000000000000000000000000000001000000000000001000000000000000000000000000000000000010000000000000000000000000001111111
11000000000000000000000000000000000000001000000000000001000000000000000000000000000000000000010000000000000000000000000001111111
11000000000000000000000000000000000000001000000000000001000000000000000000000000000000000000010000000000000000000000000011111111
11000000000000000000000000000000000000001000000000000001000000000000000000000000000000000000010000000000000000000000000111111111
11100000000000000000000000000000000000001000000000000001000000000000000000000000000000000000010000000000000000000000001111111111
11100000000000000000000000000000000000001000000000000001000000000000000000000000000000000000010000000000000000000000011111111111
11110000000000000000000000000000000000010000000000000000100000000000000000000000000000000000100000000000000000000001111111111111
11111000000000000000000000000000000000100000000000000000010000000000000000000000000000000000100000000000000000001111111111111111
11111100000000000000000000000000000000110000000000000000100000000000000000000000000000000000111100000000000000011111111111111111
11111110000000000000000000000000000001111111110000110000110000000000000000000000000000000001111111111111111000111111111111111111
11111111100000000000000000000000000111111111111111110000111100000000000000000000000000000111111111111111111000111111111111111111
11111111111000000000000000000000011111111111111111110000111110000000000000000000000000001111111111111111111000111111111111111111
11111111111111000000000000000001111111111111111111110001111111100000000000000000000001111111111111111111110000111111111111111111
11111111111111111111000000110001111111111111111111110001111111111110000000000000000001111111111111111111110001111111111111111111
11111111111111111111111111111000111111111111111111110011111111111111111111111111110001111111111111111111100011111111111111111111
11111111111111111111111111111100011111111111111111100111111111111111111111111111111000111111111111111111100111111111111111111111
11111111111111111111111111111110011111111111111111101111111111111111111111111111111100111111111111111111101111111111111111111111
11111111111111111111111111111111011111111111111111011111111111111111111111111111111110011111111111111111011111111111111111111111
11111111111111111111111111111111111111111111111111111111111111111111111111111111111111011111111111111111111111111111111111111111
11111111111111111111111111111111111111111111111111111111111111111111111111111111111111111111111111111111111111111111111111111111
11111111111111111111111111111111111111111111111111111111111111111111111111111111111111111111111111111111111111111111111111111111
11111111111111111111111111111111111111111111111111111111111111111111111111111111111111111111111111111111111111111111111111111111
11111111111111111111111111111111111111111111111111111111111111111111111111111111111111111111111111111111111111111111111111111111
10001111111011111111101110111111101110011111110101111111111111111111110001111110011011111111111111111010111111111100111111111111
10111001011011110111101110110111101101111011101100111111110010101101110111001101011110011101110110101010110110011010101011011001
10011010101001101011001100101011001110110101000101101010101010011010110011010110011010101010101010011001101010101100100110101011
10111010101010100110101010100110101111010101101101101010101010111001110111010111011010101001100110111010101010101110101110011101
10001010101001110011001100110011001100111011101110110101110010111100110001010100111010101100110010111010110110101001101111001001
11111111111111111111111111111111111111111111111111111111111111111111111111111111111111111111111111111111111111111111111111111111
11111111111111111111111111111111111111111111111111111111111111111111111111111111111111111111111111111111111111111111111111111111
11111111111111111111111111111111111111111111111111111111111111111111111111111111111111111111111111111111111111111111111111111111
11111111111111111111111111111111111111111111111111111111111111111111111111111111111111111111111111111111111111111111111111111111
11111111111111111111111111111111111111111111111111111111111111111111111111111111111111111111111111111111111111111111111111111111
11111111111111111111111111111111111111111111111111111111111111111111111111111111111111111111111111111111111111111111111111111111
11111111111111111111111111111111111111111111111111111111111111111111111111111111111111111111111111111111111111111111111111111111
11111111111111111111111111111111111111111111111111111111111111111111111111111111111111111111111111111111111111111111111111111111
11111111111111111111111111111111111111111111111111111111111111111111111111111111111111111111111111111111111111111111111111111111
11111111111111111111111111111111111111111111111111111111111111111111111111111111111111111111111111111111111111111111111111111111
11111111111111111111111111111111111111111111111111111111111111111111111111111111111111111111111111111111111111111111111111111111
